<?xml version="1.0" standalone="no"?>
<!DOCTYPE svg PUBLIC "-//W3C//DTD SVG 20010904//EN"
 "http://www.w3.org/TR/2001/REC-SVG-20010904/DTD/svg10.dtd">
<svg version="1.0" xmlns="http://www.w3.org/2000/svg"
 width="260.000000pt" height="260.000000pt" viewBox="0 0 260.000000 260.000000"
 preserveAspectRatio="xMidYMid meet">
<metadata>
Created by potrace 1.11, written by Peter Selinger 2001-2013
</metadata>
<g transform="translate(0.000000,260.000000) scale(0.100000,-0.100000)"
fill="#000000" stroke="none">
<path d="M405 2448 c-3 -7 -4 -276 -3 -598 l3 -585 264 -3 c219 -2 275 0 325
14 105 28 99 29 124 -16 l23 -41 -45 -52 c-164 -187 -199 -456 -89 -687 50
-104 168 -222 273 -274 502 -245 1045 235 860 761 -63 181 -224 333 -409 387
-68 20 -195 30 -242 19 l-37 -8 82 -134 c75 -125 84 -135 121 -146 93 -27 171
-95 214 -185 22 -46 26 -69 26 -145 0 -84 -2 -95 -34 -153 -63 -116 -156 -175
-286 -180 -63 -3 -92 1 -137 18 -75 28 -150 96 -185 168 -25 50 -28 68 -28
152 0 84 3 101 28 148 15 28 31 52 35 52 4 0 36 -48 72 -108 52 -85 70 -108
90 -110 36 -4 194 96 198 126 3 19 -134 260 -330 582 -7 11 3 33 35 81 64 96
88 173 94 299 6 121 -9 194 -60 300 -44 92 -168 215 -264 263 -86 42 -199 69
-270 65 l-50 -3 81 -137 c49 -82 90 -141 104 -147 48 -23 120 -102 148 -164
23 -52 28 -75 28 -147 0 -155 3 -158 -234 240 l-214 360 -153 0 c-114 0 -155
-3 -158 -12z m419 -696 c71 -117 126 -216 123 -219 -13 -13 -90 -23 -179 -23
l-98 0 0 247 c0 210 2 244 13 228 8 -11 71 -116 141 -233z"/>
</g>
</svg>
